#!OML:ASF G:\JayActor3\Patient Classification 1\Patient 1\Session 6\male.ASF
:FULLY-SPECIFIED
:DEGREES
1334
root 8.42942 11.5751 -3.93366 31.6827 -21.5691 10.2898
lowerback 52.4676 -2.67526 6.15322
upperback 11.009 0.027661 2.12776
thorax -8.41671 -0.143935 -0.486405
lowerneck -9.62739 -2.63457 -0.645041
upperneck 17.7475 -2.35001 -6.17217
head 6.94131 -1.66794 -2.0875
rclavicle 8.42847e-014 6.27166e-014
rhumerus -7.82427 -7.39514 -74.8557
rradius 137.726
rwrist 23.7639
rhand 7.78226 -17.8184
rfingers 7.12502
rthumb 33.02 -44.8143
lclavicle 8.42847e-014 6.27166e-014
lhumerus -31.9193 19.2015 76.1944
lradius 138.058
lwrist 5.02269
lhand 0.480441 35.0855
lfingers 7.12502
lthumb 26.0505 63.3193
rfemur -98.6993 -25.4313 17.8311
rtibia 113.207
rfoot -44.1529 -24.9448
rtoes -5.35924
lfemur -110.035 4.47992 -41.1291
ltibia 94.3367
lfoot -15.0001 -12.0423
ltoes 10.9367
1335
root 8.42451 11.5723 -3.9346 31.6852 -21.5535 10.3128
lowerback 52.4551 -2.60311 6.12337
upperback 11.0297 0.0973849 2.1647
thorax -8.39215 -0.114283 -0.463235
lowerneck -9.62591 -2.67068 -0.641363
upperneck 17.6832 -2.40719 -6.14325
head 6.91881 -1.69121 -2.08219
rclavicle -1.74931e-014 3.25013e-014
rhumerus -7.91246 -7.33517 -74.7633
rradius 137.688
rwrist 23.8016
rhand 7.33188 -17.8178
rfingers 7.12502
rthumb 32.5915 -44.9033
lclavicle -1.74931e-014 3.25013e-014
lhumerus -31.9109 19.2016 76.2158
lradius 138.09
lwrist 5.02754
lhand 0.393226 35.1671
lfingers 7.12502
lthumb 25.967 63.4132
rfemur -98.7162 -25.4115 17.8145
rtibia 113.254
rfoot -44.1768 -24.9672
rtoes -5.35473
lfemur -110.068 4.48531 -41.1642
ltibia 94.3587
lfoot -14.9809 -12.0528
ltoes 10.9369
1336
root 8.41992 11.5694 -3.93527 31.6891 -21.5286 10.3378
lowerback 52.4398 -2.53477 6.10382
upperback 11.0526 0.168493 2.20734
thorax -8.36448 -0.0841018 -0.439146
lowerneck -9.62498 -2.70893 -0.641257
upperneck 17.6255 -2.46616 -6.11526
head 6.89854 -1.71574 -2.07688
rclavicle -7.31528e-014 1.13307e-014
rhumerus -8.02126 -7.26234 -74.6509
rradius 137.646
rwrist 23.8507
rhand 6.86209 -17.7941
rfingers 7.12502
rthumb 32.1444 -44.971
lclavicle -7.31528e-014 1.13307e-014
lhumerus -31.8967 19.2005 76.2481
lradius 138.118
lwrist 5.02766
lhand 0.273177 35.2761
lfingers 7.12502
lthumb 25.852 63.539
rfemur -98.7334 -25.4035 17.7987
rtibia 113.301
rfoot -44.1972 -24.9792
rtoes -5.34766
lfemur -110.096 4.4752 -41.1917
ltibia 94.3793
lfoot -14.9622 -12.0578
ltoes 10.9522
1337
root 8.41584 11.5666 -3.93564 31.6928 -21.4847 10.3645
lowerback 52.4246 -2.47945 6.10665
upperback 11.0763 0.237078 2.25616
thorax -8.33497 -0.0550672 -0.417251
lowerneck -9.62725 -2.7488 -0.647292
upperneck 17.5767 -2.52535 -6.08962
head 6.88184 -1.74113 -2.07156
rclavicle -3.65764e-014 -4.88016e-014
rhumerus -8.14203 -7.18634 -74.5204
rradius 137.608
rwrist 23.8838
rhand 6.42678 -17.7618
rfingers 7.12502
rthumb 31.7299 -45.0215
lclavicle -3.65764e-014 -4.88016e-014
lhumerus -31.8781 19.2001 76.2874
lradius 138.137
lwrist 5.02192
lhand 0.121487 35.3967
lfingers 7.12502
lthumb 25.7067 63.6807
rfemur -98.7471 -25.4174 17.7893
rtibia 113.348
rfoot -44.215 -24.9811
rtoes -5.3368
lfemur -110.117 4.44272 -41.2085
ltibia 94.3962
lfoot -14.9414 -12.0557
ltoes 10.9717
1338
root 8.41235 11.564 -3.93563 31.6945 -21.4178 10.3931
lowerback 52.4126 -2.44318 6.13734
upperback 11.1012 0.299031 2.30907
thorax -8.30352 -0.0288156 -0.400491
lowerneck -9.63399 -2.78968 -0.660058
upperneck 17.535 -2.584 -6.0659
head 6.86837 -1.76703 -2.06594
rclavicle 2.06736e-014 3.46879e-014
rhumerus -8.26199 -7.1164 -74.3799
rradius 137.576
rwrist 23.8712
rhand 6.05931 -17.7463
rfingers 7.12502
rthumb 31.3798 -45.0746
lclavicle 2.06736e-014 3.46879e-014
lhumerus -31.8556 19.2004 76.3274
lradius 138.146
lwrist 5.007
lhand -0.0244911 35.5022
lfingers 7.12502
lthumb 25.5669 63.8064
rfemur -98.7537 -25.4595 17.7876
rtibia 113.391
rfoot -44.2311 -24.9715
rtoes -5.31943
lfemur -110.126 4.38339 -41.2089
ltibia 94.4085
lfoot -14.9153 -12.0489
ltoes 11.0231
1339
root 8.40941 11.5616 -3.93529 31.6927 -21.3279 10.4261
lowerback 52.4058 -2.42716 6.19423
upperback 11.1264 0.35239 2.36612
thorax -8.27114 -0.00622998 -0.387153
lowerneck -9.64293 -2.83112 -0.681593
upperneck 17.496 -2.64095 -6.04693
head 6.85636 -1.79315 -2.06037
rclavicle -1.43125e-014 4.73108e-014
rhumerus -8.37143 -7.05783 -74.2362
rradius 137.554
rwrist 23.793
rhand 5.78206 -17.7681
rfingers 7.12502
rthumb 31.1156 -45.1475
lclavicle -1.43125e-014 4.73108e-014
lhumerus -31.8301 19.1979 76.3699
lradius 138.146
lwrist 4.98969
lhand -0.140679 35.5849
lfingers 7.12502
lthumb 25.4556 63.9049
rfemur -98.7549 -25.5323 17.7937
rtibia 113.434
rfoot -44.2495 -24.9544
rtoes -5.29285
lfemur -110.123 4.29951 -41.2008
ltibia 94.4163
lfoot -14.8882 -12.0368
ltoes 11.0694
1340
root 8.40652 11.5592 -3.93488 31.6899 -21.2267 10.4534
lowerback 52.4097 -2.42213 6.26498
upperback 11.1525 0.401357 2.42606
thorax -8.23835 0.0143518 -0.374702
lowerneck -9.6545 -2.8705 -0.710956
upperneck 17.4578 -2.69303 -6.03189
head 6.84536 -1.81786 -2.05444
rclavicle 2.06736e-014 -3.6477e-014
rhumerus -8.46731 -7.0077 -74.0981
rradius 137.538
rwrist 23.6437
rhand 5.57053 -17.8404
rfingers 7.12502
rthumb 30.914 -45.2582
lclavicle 2.06736e-014 -3.6477e-014
lhumerus -31.8037 19.1977 76.4033
lradius 138.137
lwrist 4.97646
lhand -0.199168 35.6156
lfingers 7.12502
lthumb 25.3996 63.9437
rfemur -98.7494 -25.6122 17.8103
rtibia 113.474
rfoot -44.2729 -24.943
rtoes -5.26418
lfemur -110.115 4.21404 -41.1851
ltibia 94.4241
lfoot -14.8572 -12.032
ltoes 11.1292
1341
root 8.40318 11.5571 -3.93462 31.6917 -21.1327 10.4646
lowerback 52.4245 -2.41089 6.33268
upperback 11.1804 0.456525 2.48948
thorax -8.20494 0.0372617 -0.359413
lowerneck -9.66566 -2.90788 -0.746973
upperneck 17.4166 -2.74088 -6.02022
head 6.83356 -1.84123 -2.04808
rclavicle -4.45278e-014 3.0911e-014
rhumerus -8.55482 -6.96528 -73.9667
rradius 137.531
rwrist 23.4264
rhand 5.38039 -17.9682
rfingers 7.12502
rthumb 30.7327 -45.4203
lclavicle -4.45278e-014 3.0911e-014
lhumerus -31.776 19.1942 76.4289
lradius 138.123
lwrist 4.97158
lhand -0.205687 35.612
lfingers 7.12502
lthumb 25.3933 63.941
rfemur -98.7394 -25.6666 17.8363
rtibia 113.512
rfoot -44.3061 -24.9469
rtoes -5.23758
lfemur -110.118 4.15124 -41.1635
ltibia 94.4368
lfoot -14.8214 -12.0406
ltoes 11.1968
1342
root 8.39972 11.5549 -3.93444 31.7002 -21.0408 10.4638
lowerback 52.4411 -2.39796 6.4034
upperback 11.2112 0.515013 2.55548
thorax -8.1682 0.0614923 -0.343998
lowerneck -9.6748 -2.94349 -0.782632
upperneck 17.3736 -2.78506 -6.01715
head 6.82085 -1.86351 -2.04417
rclavicle -4.45278e-014 4.40308e-014
rhumerus -8.63039 -6.94362 -73.8427
rradius 137.529
rwrist 23.16
rhand 5.17591 -18.1389
rfingers 7.12502
rthumb 30.5377 -45.6274
lclavicle -4.45278e-014 4.40308e-014
lhumerus -31.7462 19.1876 76.4465
lradius 138.107
lwrist 4.98014
lhand -0.157706 35.568
lfingers 7.12502
lthumb 25.4393 63.8904
rfemur -98.731 -25.708 17.8727
rtibia 113.548
rfoot -44.3412 -24.9689
rtoes -5.22834
lfemur -110.131 4.10072 -41.136
ltibia 94.4545
lfoot -14.7786 -12.0588
ltoes 11.2869
1343
root 8.39596 11.5529 -3.93438 31.715 -20.9587 10.4519
lowerback 52.462 -2.37729 6.46909
upperback 11.2442 0.579621 2.62286
thorax -8.12953 0.0882058 -0.32727
lowerneck -9.68555 -2.97647 -0.816509
upperneck 17.3359 -2.82463 -6.02033
head 6.81014 -1.88409 -2.04233
rclavicle 2.38542e-014 -2.68359e-015
rhumerus -8.69659 -6.93804 -73.7313
rradius 137.528
rwrist 22.8766
rhand 4.90978 -18.342
rfingers 7.12502
rthumb 30.2839 -45.8775
lclavicle 2.38542e-014 -2.68359e-015
lhumerus -31.7164 19.1797 76.4589
lradius 138.092
lwrist 4.99715
lhand -0.074525 35.4981
lfingers 7.12502
lthumb 25.519 63.809
rfemur -98.723 -25.7278 17.9125
rtibia 113.582
rfoot -44.3773 -24.9933
rtoes -5.22378
lfemur -110.156 4.06971 -41.11
ltibia 94.4768
lfoot -14.7318 -12.0846
ltoes 11.3775
1344
root 8.39239 11.551 -3.93425 31.7347 -20.8782 10.4349
lowerback 52.4819 -2.35567 6.53894
upperback 11.2791 0.647244 2.69254
thorax -8.08854 0.116173 -0.311156
lowerneck -9.69393 -3.0081 -0.84651
upperneck 17.305 -2.86157 -6.03063
head 6.80111 -1.90383 -2.04328
rclavicle -6.04305e-014 -7.54388e-014
rhumerus -8.74697 -6.94792 -73.636
rradius 137.519
rwrist 22.6035
rhand 4.56133 -18.564
rfingers 7.12502
rthumb 29.9515 -46.16
lclavicle -6.04305e-014 -7.54388e-014
lhumerus -31.6858 19.1704 76.4724
lradius 138.085
lwrist 5.02149
lhand 0.0127569 35.4504
lfingers 7.12502
lthumb 25.6026 63.7494
rfemur -98.7146 -25.7424 17.9533
rtibia 113.614
rfoot -44.4063 -25.0172
rtoes -5.23537
lfemur -110.187 4.04124 -41.0808
ltibia 94.5007
lfoot -14.682 -12.1098
ltoes 11.4736
1345
root 8.38867 11.5491 -3.93419 31.7649 -20.8092 10.4057
lowerback 52.5 -2.32095 6.60144
upperback 11.3147 0.726085 2.76831
thorax -8.04688 0.148553 -0.289876
lowerneck -9.70091 -3.03634 -0.871837
upperneck 17.2868 -2.8924 -6.05124
head 6.79584 -1.92136 -2.04805
rclavicle -1.59028e-015 -5.19822e-014
rhumerus -8.78407 -6.96382 -73.5578
rradius 137.503
rwrist 22.371
rhand 4.15574 -18.7929
rfingers 7.12502
rthumb 29.5644 -46.4582
lclavicle -1.59028e-015 -5.19822e-014
lhumerus -31.6593 19.1649 76.492
lradius 138.089
lwrist 5.05425
lhand 0.0758816 35.4453
lfingers 7.12502
lthumb 25.6631 63.7356
rfemur -98.7129 -25.7339 17.9979
rtibia 113.647
rfoot -44.4291 -25.0549
rtoes -5.26648
lfemur -110.232 4.03036 -41.0536
ltibia 94.5273
lfoot -14.6355 -12.1352
ltoes 11.5494
1346
root 8.38492 11.5472 -3.93404 31.8016 -20.7501 10.3718
lowerback 52.5157 -2.27158 6.66104
upperback 11.3457 0.821213 2.85461
thorax -8.01041 0.187247 -0.262757
lowerneck -9.67933 -3.06939 -0.907329
upperneck 17.2765 -2.92815 -6.07339
head 6.78812 -1.94163 -2.05159
rclavicle 5.08889e-014 -6.88789e-014
rhumerus -8.81759 -6.98596 -73.485
rradius 137.477
rwrist 22.194
rhand 3.7272 -19.0309
rfingers 7.12502
rthumb 29.1552 -46.7679
lclavicle 5.08889e-014 -6.88789e-014
lhumerus -31.6466 19.1533 76.5297
lradius 138.105
lwrist 5.08813
lhand 0.121794 35.4575
lfingers 7.12502
lthumb 25.707 63.7415
rfemur -98.7168 -25.7146 18.0408
rtibia 113.68
rfoot -44.4425 -25.0941
rtoes -5.31401
lfemur -110.284 4.02997 -41.0325
ltibia 94.5538
lfoot -14.5982 -12.1572
ltoes 11.5918
1347
root 8.38084 11.5454 -3.93391 31.8415 -20.7043 10.3388
lowerback 52.532 -2.20236 6.70814
upperback 11.3708 0.934475 2.95368
thorax -7.98147 0.232816 -0.223772
lowerneck -9.62473 -3.10891 -0.954219
upperneck 17.2712 -2.97105 -6.0978
head 6.77619 -1.96571 -2.05394
rclavicle -5.08889e-014 -4.80065e-014
rhumerus -8.84846 -7.00373 -73.4135
rradius 137.443
rwrist 22.0771
rhand 3.33725 -19.2889
rfingers 7.12502
rthumb 28.7828 -47.0898
lclavicle -5.08889e-014 -4.80065e-014
lhumerus -31.6481 19.1339 76.5912
lradius 138.132
lwrist 5.1211
lhand 0.143842 35.4843
lfingers 7.12502
lthumb 25.7281 63.7652
rfemur -98.7263 -25.6849 18.0757
rtibia 113.716
rfoot -44.4511 -25.1279
rtoes -5.3625
lfemur -110.339 4.04203 -41.023
ltibia 94.5773
lfoot -14.5737 -12.1781
ltoes 11.5951
1348
root 8.37666 11.5439 -3.93372 31.88 -20.6619 10.313
lowerback 52.5511 -2.12573 6.75117
upperback 11.3902 1.05592 3.06107
thorax -7.96001 0.281285 -0.177263
lowerneck -9.54546 -3.15251 -1.00888
upperneck 17.2741 -3.0186 -6.12189
head 6.7626 -1.99213 -2.05489
rclavicle -1.27222e-014 -9.68081e-014
rhumerus -8.86716 -7.00758 -73.3502
rradius 137.397
rwrist 22.0179
rhand 3.03782 -19.5721
rfingers 7.12502
rthumb 28.4967 -47.4213
lclavicle -1.27222e-014 -9.68081e-014
lhumerus -31.6626 19.1115 76.6676
lradius 138.166
lwrist 5.14689
lhand 0.153086 35.4918
lfingers 7.12502
lthumb 25.737 63.7714
rfemur -98.7382 -25.6627 18.1004
rtibia 113.753
rfoot -44.4498 -25.1428
rtoes -5.41717
lfemur -110.386 4.05174 -41.0214
ltibia 94.5935
lfoot -14.5596 -12.1944
ltoes 11.5757
